<svg width="63" height="13" viewBox="0 0 63 13" fill="none" xmlns="http://www.w3.org/2000/svg">
<path d="M4.752 12V6.784L0.384 0.48H1.984L5.776 6.016H5.168L8.96 0.48H10.432L6.064 6.784V12H4.752ZM13.9376 12.16C13.1376 12.16 12.4336 11.9733 11.8256 11.6C11.2176 11.2267 10.743 10.72 10.4016 10.08C10.071 9.42933 9.90563 8.69867 9.90563 7.888C9.90563 7.06667 10.0763 6.34133 10.4176 5.712C10.759 5.08267 11.2283 4.58667 11.8256 4.224C12.4336 3.86133 13.1376 3.68 13.9376 3.68C14.7483 3.68 15.4523 3.86133 16.0496 4.224C16.6576 4.58667 17.127 5.08267 17.4576 5.712C17.799 6.34133 17.9696 7.06667 17.9696 7.888C17.9696 8.69867 17.799 9.42933 17.4576 10.08C17.127 10.72 16.6576 11.2267 16.0496 11.6C15.4523 11.9733 14.7483 12.16 13.9376 12.16ZM13.9376 11.072C14.4923 11.072 14.9723 10.9387 15.3776 10.672C15.783 10.3947 16.0976 10.016 16.3216 9.536C16.5456 9.056 16.6576 8.50133 16.6576 7.872C16.6576 6.93333 16.407 6.18133 15.9056 5.616C15.415 5.05067 14.759 4.768 13.9376 4.768C13.127 4.768 12.471 5.05067 11.9696 5.616C11.4683 6.18133 11.2176 6.93333 11.2176 7.872C11.2176 8.50133 11.3296 9.056 11.5536 9.536C11.7776 10.016 12.0923 10.3947 12.4976 10.672C12.9136 10.9387 13.3936 11.072 13.9376 11.072ZM22.5454 12.16C22.012 12.16 21.5374 12.0533 21.1214 11.84C20.7054 11.616 20.38 11.3067 20.1454 10.912C19.9107 10.5067 19.7934 10.0427 19.7934 9.52V3.84H21.0734V9.184C21.0734 9.80267 21.2227 10.2667 21.5214 10.576C21.8307 10.8853 22.268 11.04 22.8334 11.04C23.3454 11.04 23.7987 10.9227 24.1934 10.688C24.588 10.4533 24.8974 10.128 25.1214 9.712C25.356 9.28533 25.4734 8.8 25.4734 8.256L25.6814 10.192C25.4147 10.8 24.9987 11.28 24.4334 11.632C23.868 11.984 23.2387 12.16 22.5454 12.16ZM25.5534 12V10.08H25.4734V3.84H26.7534V12H25.5534ZM31.0436 12V1.632H27.0916V0.48H36.3076V1.632H32.3556V12H31.0436ZM39.3266 12.16C38.7933 12.16 38.3186 12.0533 37.9026 11.84C37.4866 11.616 37.1613 11.3067 36.9266 10.912C36.692 10.5067 36.5746 10.0427 36.5746 9.52V3.84H37.8546V9.184C37.8546 9.80267 38.004 10.2667 38.3026 10.576C38.612 10.8853 39.0493 11.04 39.6146 11.04C40.1266 11.04 40.58 10.9227 40.9746 10.688C41.3693 10.4533 41.6786 10.128 41.9026 9.712C42.1373 9.28533 42.2546 8.8 42.2546 8.256L42.4626 10.192C42.196 10.8 41.78 11.28 41.2146 11.632C40.6493 11.984 40.02 12.16 39.3266 12.16ZM42.3346 12V10.08H42.2546V3.84H43.5346V12H42.3346ZM50.1245 12.144C49.3565 12.144 48.7112 11.9573 48.1885 11.584C47.6658 11.2107 47.3085 10.6827 47.1165 10L47.2925 9.968V12H46.0925V0.48H47.3725V5.744L47.1965 5.696C47.3992 5.06667 47.7672 4.576 48.3005 4.224C48.8445 3.86133 49.4898 3.68 50.2365 3.68C50.9618 3.68 51.5912 3.856 52.1245 4.208C52.6685 4.56 53.0898 5.05067 53.3885 5.68C53.6872 6.30933 53.8365 7.04533 53.8365 7.888C53.8365 8.74133 53.6818 9.488 53.3725 10.128C53.0632 10.768 52.6312 11.264 52.0765 11.616C51.5218 11.968 50.8712 12.144 50.1245 12.144ZM49.9325 11.024C50.7432 11.024 51.3778 10.7467 51.8365 10.192C52.2952 9.62667 52.5245 8.85867 52.5245 7.888C52.5245 6.928 52.2952 6.176 51.8365 5.632C51.3778 5.07733 50.7432 4.8 49.9325 4.8C49.1218 4.8 48.4818 5.08267 48.0125 5.648C47.5432 6.20267 47.3085 6.96533 47.3085 7.936C47.3085 8.88533 47.5432 9.63733 48.0125 10.192C48.4818 10.7467 49.1218 11.024 49.9325 11.024ZM59.1396 12.16C58.361 12.16 57.673 11.9787 57.0756 11.616C56.4783 11.2427 56.009 10.736 55.6676 10.096C55.3263 9.456 55.1556 8.72 55.1556 7.888C55.1556 7.056 55.321 6.32533 55.6516 5.696C55.993 5.056 56.4676 4.56 57.0756 4.208C57.6836 3.856 58.3823 3.68 59.1716 3.68C59.929 3.68 60.585 3.84533 61.1396 4.176C61.705 4.50667 62.137 4.97067 62.4356 5.568C62.745 6.16533 62.8996 6.86933 62.8996 7.68C62.8996 7.78667 62.8943 7.888 62.8836 7.984C62.8836 8.08 62.873 8.18667 62.8516 8.304H56.1156V7.232H62.0676L61.6516 7.824C61.6516 6.84267 61.433 6.09067 60.9956 5.568C60.569 5.03467 59.961 4.768 59.1716 4.768C58.361 4.768 57.705 5.05067 57.2036 5.616C56.713 6.17067 56.4676 6.92267 56.4676 7.872C56.4676 8.84267 56.713 9.62133 57.2036 10.208C57.705 10.784 58.3716 11.072 59.2036 11.072C59.7263 11.072 60.185 10.96 60.5796 10.736C60.9743 10.5013 61.2623 10.1707 61.4436 9.744H62.6596C62.393 10.4907 61.945 11.0827 61.3156 11.52C60.697 11.9467 59.9716 12.16 59.1396 12.16Z" fill="white"/>
</svg>
