<svg width="40" height="40" viewBox="0 0 40 40" fill="none" xmlns="http://www.w3.org/2000/svg">
<path fill-rule="evenodd" clip-rule="evenodd" d="M5.77301 34.225C8.21634 36.6666 12.143 36.6666 19.9997 36.6666C27.8563 36.6666 31.7847 36.6666 34.2247 34.225C36.6663 31.7866 36.6663 27.8566 36.6663 20C36.6663 12.1433 36.6663 8.21498 34.2247 5.77331C31.7863 3.33331 27.8563 3.33331 19.9997 3.33331C12.143 3.33331 8.21467 3.33331 5.77301 5.77331C3.33301 8.21665 3.33301 12.1433 3.33301 20C3.33301 27.8566 3.33301 31.785 5.77301 34.225ZM15.833 14.5833C14.7617 14.5833 13.7144 14.901 12.8237 15.4962C11.9329 16.0914 11.2386 16.9373 10.8287 17.9271C10.4187 18.9169 10.3114 20.006 10.5204 21.0567C10.7294 22.1074 11.2453 23.0726 12.0028 23.8301C12.7604 24.5877 13.7255 25.1036 14.7763 25.3126C15.827 25.5216 16.9161 25.4143 17.9059 25.0043C18.8956 24.5944 19.7416 23.9001 20.3368 23.0093C20.932 22.1186 21.2497 21.0713 21.2497 20C21.2497 19.6685 21.3814 19.3505 21.6158 19.1161C21.8502 18.8817 22.1682 18.75 22.4997 18.75C22.8312 18.75 23.1491 18.8817 23.3836 19.1161C23.618 19.3505 23.7497 19.6685 23.7497 20C23.7497 21.5657 23.2854 23.0964 22.4155 24.3982C21.5456 25.7001 20.3092 26.7148 18.8626 27.314C17.416 27.9132 15.8242 28.07 14.2885 27.7645C12.7529 27.4591 11.3422 26.7051 10.2351 25.5979C9.12791 24.4907 8.37392 23.0801 8.06846 21.5444C7.76299 20.0088 7.91977 18.417 8.51896 16.9704C9.11816 15.5238 10.1329 14.2874 11.4347 13.4175C12.7366 12.5476 14.2672 12.0833 15.833 12.0833C16.1645 12.0833 16.4825 12.215 16.7169 12.4494C16.9513 12.6838 17.083 13.0018 17.083 13.3333C17.083 13.6648 16.9513 13.9828 16.7169 14.2172C16.4825 14.4516 16.1645 14.5833 15.833 14.5833ZM29.583 20C29.583 21.4366 29.0123 22.8143 27.9965 23.8301C26.9807 24.846 25.6029 25.4166 24.1663 25.4166C23.8348 25.4166 23.5169 25.5483 23.2825 25.7828C23.048 26.0172 22.9163 26.3351 22.9163 26.6666C22.9163 26.9982 23.048 27.3161 23.2825 27.5505C23.5169 27.785 23.8348 27.9166 24.1663 27.9166C25.7321 27.9166 27.2627 27.4523 28.5646 26.5824C29.8665 25.7126 30.8812 24.4761 31.4804 23.0296C32.0796 21.583 32.2364 19.9912 31.9309 18.4555C31.6254 16.9198 30.8714 15.5092 29.7643 14.4021C28.6571 13.2949 27.2465 12.5409 25.7108 12.2354C24.1751 11.93 22.5833 12.0867 21.1368 12.6859C19.6902 13.2851 18.4538 14.2998 17.5839 15.6017C16.714 16.9036 16.2497 18.4342 16.2497 20C16.2497 20.3315 16.3814 20.6494 16.6158 20.8839C16.8502 21.1183 17.1682 21.25 17.4997 21.25C17.8312 21.25 18.1491 21.1183 18.3836 20.8839C18.618 20.6494 18.7497 20.3315 18.7497 20C18.7497 18.5634 19.3204 17.1856 20.3362 16.1698C21.352 15.154 22.7298 14.5833 24.1663 14.5833C25.6029 14.5833 26.9807 15.154 27.9965 16.1698C29.0123 17.1856 29.583 18.5634 29.583 20Z" fill="#633CFF"/>
</svg>
